<svg width="24" height="24" viewBox="0 0 24 24" fill="none" xmlns="http://www.w3.org/2000/svg">
    <path fill-rule="evenodd" clip-rule="evenodd" d="M14.2426 5.75736C16.3449 7.85958 16.561 11.1337 14.8911 13.4769L19.8995 18.4853L18.4853 19.8995L13.4769 14.8911C11.1337 16.561 7.85958 16.3449 5.75736 14.2426C3.41421 11.8995 3.41422 8.1005 5.75736 5.75736C8.1005 3.41422 11.8995 3.41421 14.2426 5.75736ZM12.8284 12.8284C14.3905 11.2663 14.3905 8.73367 12.8284 7.17157C11.2663 5.60948 8.73367 5.60948 7.17157 7.17157C5.60948 8.73367 5.60948 11.2663 7.17157 12.8284C8.73367 14.3905 11.2663 14.3905 12.8284 12.8284Z" fill="#B9BABB"/>
</svg>
