<svg width="58" height="16" viewBox="0 0 58 16" fill="none" xmlns="http://www.w3.org/2000/svg">
<path d="M11.5595 4.94311V15.6406H8.35102V14.6347C7.64617 15.4481 6.59666 15.9401 5.16371 15.9401C2.36053 15.9401 0.0500488 13.4795 0.0500488 10.2922C0.0500488 7.10488 2.36053 4.64355 5.16371 4.64355C6.59666 4.64355 7.64547 5.13695 8.35102 5.94893V4.94311H11.5595ZM8.35102 10.2908C8.35102 8.68585 7.28177 7.68285 5.80511 7.68285C4.32846 7.68285 3.25921 8.68866 3.25921 10.2908C3.25921 11.8929 4.32917 12.8987 5.80511 12.8987C7.28106 12.8987 8.35102 11.8964 8.35102 10.2908Z" fill="#1A1A1A"/>
<path d="M13.9136 0.0218506H17.1227V15.6405H13.9136V0.0218506Z" fill="#1A1A1A"/>
<path d="M23.3706 4.9431H25.3597V8.02398H23.3706V15.6405H20.1586V8.02398H18.7278V4.9431H20.1586C20.1586 1.9475 21.8065 0.150148 25.3576 0.361601V3.44248C24.1621 3.33817 23.3706 3.70187 23.3706 4.9431Z" fill="#1A1A1A"/>
<path d="M32.9549 4.72882V8.36653C31.6284 8.15508 29.7458 8.68723 29.7458 10.8053V15.6405H26.5366V4.94309H29.7444V6.84618C30.1736 5.41393 31.6073 4.72882 32.9549 4.72882Z" fill="#1A1A1A"/>
<path d="M39.5658 13.0735C40.4433 13.0735 41.1919 12.731 41.6197 12.2601L44.1875 13.7368C43.1386 15.1916 41.5556 15.9401 39.5235 15.9401C35.8646 15.9401 33.5964 13.4795 33.5964 10.2922C33.5964 7.10488 35.9076 4.64355 39.2881 4.64355C42.4112 4.64355 44.7225 7.06118 44.7225 10.2922C44.7242 10.7234 44.681 11.1535 44.5934 11.5757H36.9987C37.4047 12.6873 38.3894 13.0735 39.5658 13.0735ZM41.5344 9.17924C41.1919 7.93871 40.229 7.48761 39.2662 7.48761C38.0468 7.48761 37.2341 8.08673 36.9346 9.17924H41.5344Z" fill="#1A1A1A"/>
<path d="M57.4096 0.663946V15.6405H54.2026V14.6347C53.4977 15.4481 52.4482 15.9401 51.0145 15.9401C48.2114 15.9401 45.9009 13.4795 45.9009 10.2921C45.9009 7.10483 48.2114 4.64351 51.0145 4.64351C52.4482 4.64351 53.4963 5.1369 54.2026 5.94888V0.662537L57.4096 0.663946ZM54.2026 10.2907C54.2026 8.6858 53.1326 7.6828 51.6559 7.6828C50.1793 7.6828 49.11 8.68862 49.11 10.2907C49.11 11.8928 50.18 12.8987 51.6559 12.8987C53.1319 12.8987 54.2026 11.8964 54.2026 10.2907Z" fill="#1A1A1A"/>
</svg>
